<?xml version="1.0" encoding="UTF-8" standalone="no"?>
<!-- Created with Inkscape (http://www.inkscape.org/) -->

<svg
   width="503.45325"
   height="463.34045"
   viewBox="0 0 503.45325 463.34045"
   version="1.1"
   id="svg1"
   inkscape:export-filename="support.svg"
   inkscape:export-xdpi="300"
   inkscape:export-ydpi="300"
   xmlns:inkscape="http://www.inkscape.org/namespaces/inkscape"
   xmlns:sodipodi="http://sodipodi.sourceforge.net/DTD/sodipodi-0.dtd"
   xmlns="http://www.w3.org/2000/svg"
   xmlns:svg="http://www.w3.org/2000/svg">
  <sodipodi:namedview
     id="namedview1"
     pagecolor="#ffffff"
     bordercolor="#666666"
     borderopacity="1.0"
     inkscape:showpageshadow="2"
     inkscape:pageopacity="0.0"
     inkscape:pagecheckerboard="0"
     inkscape:deskcolor="#d1d1d1"
     inkscape:document-units="px"
     showgrid="false" />
  <defs
     id="defs1" />
  <g
     inkscape:label="Layer 1"
     inkscape:groupmode="layer"
     id="layer1"
     transform="translate(-4.2733822,-24.329767)">
    <g
       id="g1"
       transform="translate(-1.2671796e-5,13.206703)">
      <g
         id="g13"
         transform="matrix(4.7959887,0,0,4.7959887,-1802.6729,-981.44037)">
				<g
   id="g12">
					<polygon
   style="fill:#ffc45c"
   points="448.255,286.963 444.447,283.162 464.045,263.564 467.845,267.372 472.406,271.933 476.443,275.97 456.852,295.56 "
   id="polygon11" />

				</g>

			</g>
      <rect
         x="141.00705"
         y="152.82538"
         style="fill:#ffc45c;fill-opacity:1;stroke-width:4.79599"
         width="85.406967"
         height="96.241104"
         id="rect13" />
      <path
         style="fill:#ffc45c;fill-opacity:1;stroke-width:4.79599"
         d="m 200.00249,105.16761 c -12.99233,-12.838866 -30.8478,-20.766635 -50.54013,-20.766635 -39.72038,0 -71.944626,32.190675 -71.944626,71.911055 0,20.14795 8.292264,38.35832 21.649093,51.413 l -0.87287,37.21207 -13.826835,23.93678 -7.289903,-4.43629 c -2.340443,-1.61624 -4.575373,-3.338 -6.843876,-5.0214 l -3.405152,-2.58024 c -1.06471,-0.89205 -2.100643,-1.88962 -3.165353,-2.82004 l -6.258765,-5.74559 -5.745594,-6.25877 c -0.930422,-1.06471 -1.927988,-2.09585 -2.820042,-3.19892 l -2.580242,-3.37158 c -1.683392,-2.26851 -3.405152,-4.5418 -5.0214,-6.84388 l -4.436289,-7.2899 23.936779,-13.82684 C 56.367424,199.84522 52.9287,191.55775 50.588257,182.78589 l -26.651309,7.15561 c -3.232496,-10.93485 -4.19649,-22.3541 -4.541801,-33.63427 0.345311,-11.28016 1.304509,-22.66584 4.541801,-33.63427 l 26.651309,7.15562 c 2.340443,-8.7335 5.812739,-17.05933 10.249028,-24.69455 l -23.936779,-13.826832 4.436289,-7.25633 c 1.616248,-2.340443 3.338008,-4.575374 5.0214,-6.877448 l 2.580242,-3.37158 c 0.892054,-1.098282 1.88962,-2.134215 2.820042,-3.198925 l 5.745594,-6.258765 6.258765,-5.745594 c 1.06471,-0.930422 2.100643,-1.88962 3.165353,-2.820042 l 3.405152,-2.54667 c 2.268503,-1.683392 4.503433,-3.438724 6.843876,-5.054972 l 7.289903,-4.436289 13.860407,23.970351 c 7.635211,-4.469861 15.922681,-7.942157 24.656181,-10.249028 l -7.15082,-26.689677 c 10.93485,-3.198924 22.3541,-4.162918 33.63427,-4.541801 11.28016,0.378883 22.66104,1.342877 33.60069,4.541801 l -7.11724,26.689677 c 8.73349,2.302075 17.02096,5.779167 24.65617,10.249028 l 13.86041,-23.970351 7.25633,4.436289 c 2.34044,1.616248 4.57538,3.37158 6.84388,5.054972 l 3.40515,2.54667 c 1.09828,0.930422 2.12942,1.88962 3.16535,2.820042 l 6.29234,5.745594 5.7408,6.258765 c 0.93042,1.06471 1.88962,2.095847 2.82004,3.198925 l 2.54667,3.37158 c 1.68339,2.302074 3.43872,4.541801 5.05497,6.877448 l 4.43629,7.25633 -23.97035,13.860412 z"
         id="path13" />
      <path
         style="fill:none;stroke:#000000;stroke-width:9.59198;stroke-linecap:round;stroke-linejoin:round;stroke-miterlimit:10"
         d="m 364.60082,454.21007 c 0,8.53686 -6.92061,15.45747 -15.45747,15.45747 H 116.82566 c -8.53686,0 -15.45747,-6.92061 -15.45747,-15.45747 V 119.72343 c 0,-8.53686 6.92061,-15.45747 15.45747,-15.45747 h 232.31769 c 8.53686,0 15.45747,6.92061 15.45747,15.45747 v 168.56462"
         id="path14" />
      <g
         id="g18"
         transform="matrix(4.7959887,0,0,4.7959887,-1802.6729,-981.44037)">
				<g
   id="g17">
					
						<polygon
   style="fill:none;stroke:#000000;stroke-width:2;stroke-linecap:round;stroke-linejoin:round;stroke-miterlimit:10"
   points="442.296,281.011 461.894,261.413 465.694,265.221 446.103,284.811 "
   id="polygon14" />

					
						<rect
   x="448.625"
   y="278.741"
   transform="matrix(0.7071,-0.7071,0.7071,0.7071,-63.6615,409.4981)"
   style="fill:none;stroke:#000000;stroke-width:2;stroke-linecap:round;stroke-linejoin:round;stroke-miterlimit:10"
   width="27.705"
   height="5.7090001"
   id="rect14" />

					<path
   style="fill:none;stroke:#000000;stroke-width:2;stroke-linecap:round;stroke-linejoin:round;stroke-miterlimit:10"
   d="m 479.419,268.699 -1.226,1.219 -12.398,-12.398 1.219,-1.226 c 1.764,-1.764 4.625,-1.764 6.389,0 l 6.016,6.016 c 1.764,1.764 1.764,4.625 0,6.389 z"
   id="path15" />

					
						<polygon
   style="fill:none;stroke:#000000;stroke-width:2;stroke-linecap:round;stroke-linejoin:round;stroke-miterlimit:10"
   points="478.193,269.918 474.292,273.819 470.255,269.781 465.694,265.221 461.894,261.413 465.794,257.519 "
   id="polygon15" />

					
						<polygon
   style="fill:none;stroke:#000000;stroke-width:2;stroke-linecap:round;stroke-linejoin:round;stroke-miterlimit:10"
   points="465.794,257.519 461.894,261.413 465.787,257.512 "
   id="polygon16" />

					
						<rect
   x="444.32599"
   y="274.07199"
   transform="matrix(0.7071,-0.7071,0.7071,0.7071,-61.8807,405.1998)"
   style="fill:none;stroke:#000000;stroke-width:2;stroke-linecap:round;stroke-linejoin:round;stroke-miterlimit:10"
   width="27.705"
   height="6.4499998"
   id="rect16" />

					<path
   style="fill:none;stroke:#000000;stroke-width:2;stroke-linecap:round;stroke-linejoin:round;stroke-miterlimit:10"
   d="m 450.894,293.775 -8.282,0.796 c -0.846,0.079 -1.556,-0.631 -1.47,-1.477 l 0.452,-4.726 z"
   id="path16" />

					
						<polygon
   style="fill:none;stroke:#000000;stroke-width:2;stroke-linecap:round;stroke-linejoin:round;stroke-miterlimit:10"
   points="454.701,293.409 450.894,293.775 441.593,288.368 442.296,281.011 446.103,284.811 "
   id="polygon17" />

				</g>

			</g>
      <rect
         x="130.69087"
         y="142.5092"
         style="fill:none;stroke:#000000;stroke-width:9.59198;stroke-linecap:round;stroke-linejoin:round;stroke-miterlimit:10"
         width="85.406967"
         height="96.241104"
         id="rect18" />
      <line
         style="fill:none;stroke:#000000;stroke-width:9.59198;stroke-linecap:round;stroke-linejoin:round;stroke-miterlimit:10"
         x1="130.69087"
         y1="276.06311"
         x2="336.83203"
         y2="276.06311"
         id="line18" />
      <line
         style="fill:none;stroke:#000000;stroke-width:9.59198;stroke-linecap:round;stroke-linejoin:round;stroke-miterlimit:10"
         x1="130.69087"
         y1="319.08313"
         x2="336.83203"
         y2="319.08313"
         id="line19" />
      <line
         style="fill:none;stroke:#000000;stroke-width:9.59198;stroke-linecap:round;stroke-linejoin:round;stroke-miterlimit:10"
         x1="130.69087"
         y1="364.97595"
         x2="302.14264"
         y2="364.97595"
         id="line20" />
      <line
         style="fill:none;stroke:#000000;stroke-width:9.59198;stroke-linecap:round;stroke-linejoin:round;stroke-miterlimit:10"
         x1="130.69087"
         y1="411.05096"
         x2="279.83167"
         y2="411.05096"
         id="line21" />
      <g
         id="g22"
         transform="matrix(4.7959887,0,0,4.7959887,-1802.6729,-981.44037)">
					<g
   id="g21">
						<path
   style="fill:none;stroke:#000000;stroke-width:2;stroke-linecap:round;stroke-linejoin:round;stroke-miterlimit:10"
   d="m 423.355,224.416 4.998,-2.89 -0.925,-1.513 c -0.337,-0.488 -0.703,-0.954 -1.054,-1.434 l -0.531,-0.703 c -0.194,-0.229 -0.394,-0.445 -0.588,-0.667 l -1.197,-1.305 -1.312,-1.198 c -0.215,-0.194 -0.43,-0.394 -0.66,-0.588 l -0.71,-0.531 c -0.473,-0.351 -0.939,-0.717 -1.427,-1.054 l -1.513,-0.925 -2.89,4.998 c -1.592,-0.932 -3.32,-1.656 -5.141,-2.137 l 1.484,-5.565 c -2.28,-0.667 -4.654,-0.868 -7.006,-0.947 -2.352,0.079 -4.733,0.28 -7.013,0.947 l 1.491,5.565 c -1.821,0.48 -3.55,1.205 -5.141,2.137 l -2.89,-4.998 -1.52,0.925 c -0.488,0.337 -0.954,0.703 -1.427,1.054 l -0.71,0.531 c -0.222,0.194 -0.438,0.394 -0.66,0.588 l -1.305,1.198 -1.198,1.305 c -0.194,0.222 -0.402,0.437 -0.588,0.667 l -0.538,0.703 c -0.351,0.48 -0.71,0.947 -1.047,1.434 l -0.925,1.513 4.991,2.883 c -0.925,1.592 -1.649,3.327 -2.137,5.149 l -5.557,-1.492 c -0.674,2.287 -0.875,4.661 -0.947,7.013 0.072,2.352 0.272,4.733 0.947,7.013 l 5.557,-1.492 c 0.488,1.829 1.205,3.557 2.137,5.149 l -4.991,2.883 0.925,1.52 c 0.337,0.48 0.696,0.954 1.047,1.427 l 0.538,0.703 c 0.186,0.229 0.394,0.445 0.588,0.667 l 1.198,1.305 1.305,1.198 c 0.222,0.194 0.438,0.402 0.66,0.588 l 0.71,0.538 c 0.473,0.351 0.939,0.71 1.427,1.047 l 1.52,0.925 2.883,-4.991 m 0.182,-7.76 c -2.785,-2.722 -4.514,-6.519 -4.514,-10.72 0,-8.282 6.719,-14.994 15.001,-14.994 4.106,0 7.829,1.653 10.538,4.33"
   id="path21" />

					</g>

				</g>
    </g>
  </g>
</svg>
