<?xml version="1.0" encoding="UTF-8" standalone="no"?>
<!-- Created with Inkscape (http://www.inkscape.org/) -->

<svg
   width="442.35333"
   height="512"
   viewBox="0 0 442.35333 512"
   version="1.1"
   id="svg1"
   xmlns:inkscape="http://www.inkscape.org/namespaces/inkscape"
   xmlns:sodipodi="http://sodipodi.sourceforge.net/DTD/sodipodi-0.dtd"
   xmlns="http://www.w3.org/2000/svg"
   xmlns:svg="http://www.w3.org/2000/svg">
  <sodipodi:namedview
     id="namedview1"
     pagecolor="#ffffff"
     bordercolor="#666666"
     borderopacity="1.0"
     inkscape:showpageshadow="2"
     inkscape:pageopacity="0.0"
     inkscape:pagecheckerboard="0"
     inkscape:deskcolor="#d1d1d1"
     inkscape:document-units="px"
     showgrid="false" />
  <defs
     id="defs1" />
  <g
     inkscape:label="Layer 1"
     inkscape:groupmode="layer"
     id="layer1"
     transform="translate(-34.823338)">
    <g
       id="g37"
       transform="matrix(6.749364,0,0,6.749364,-2590.2473,-290.69511)"
       inkscape:export-filename="expertise.svg"
       inkscape:export-xdpi="300"
       inkscape:export-ydpi="300">
			<path
   style="fill:#ffc45c"
   d="m 426.789,48.485 c 8.348,3.882 14.139,12.345 14.139,22.16 0,8.433 -4.274,15.862 -10.763,20.25 h -0.007 l -6.375,14.134 h -14.549 l -6.375,-14.134 -0.007,-0.007 c -6.497,-4.389 -10.763,-11.817 -10.763,-20.243 0,-13.488 10.935,-24.424 24.424,-24.424 3.669,0 7.151,0.811 10.276,2.264"
   id="path28" />

			<path
   style="fill:none;stroke:#000000;stroke-width:2;stroke-linecap:round;stroke-linejoin:round;stroke-miterlimit:10"
   d="m 432.432,84.914 c -1.313,1.445 -2.797,2.733 -4.42,3.83 h -0.007 l -6.375,14.134 h -14.549 l -6.375,-14.134 -0.007,-0.007 c -6.497,-4.389 -10.763,-11.817 -10.763,-20.243 0,-13.488 10.935,-24.424 24.424,-24.424 3.671,0 7.154,0.811 10.278,2.264"
   id="path29" />

			
				<line
   style="fill:none;stroke:#000000;stroke-width:2;stroke-linecap:round;stroke-linejoin:round;stroke-miterlimit:10"
   x1="428.013"
   y1="88.744003"
   x2="428.013"
   y2="88.737"
   id="line29" />

			
				<rect
   x="405.13599"
   y="102.877"
   style="fill:none;stroke:#000000;stroke-width:2;stroke-linecap:round;stroke-linejoin:round;stroke-miterlimit:10"
   width="18.438999"
   height="10.766"
   id="rect29" />

			<path
   style="fill:none;stroke:#000000;stroke-width:2;stroke-linecap:round;stroke-linejoin:round;stroke-miterlimit:10"
   d="m 406.831,113.643 c 0,0 0.048,4.286 7.524,4.286 7.476,0 7.376,-4.286 7.376,-4.286"
   id="path30" />

			
				<line
   style="fill:none;stroke:#000000;stroke-width:2;stroke-linecap:round;stroke-linejoin:round;stroke-miterlimit:10"
   x1="423.57501"
   y1="105.769"
   x2="405.13599"
   y2="110.603"
   id="line30" />

			
				<line
   style="fill:none;stroke:#000000;stroke-width:2;stroke-linecap:round;stroke-linejoin:round;stroke-miterlimit:10"
   x1="410.46899"
   y1="102.877"
   x2="404.755"
   y2="76.898003"
   id="line31" />

			
				<line
   style="fill:none;stroke:#000000;stroke-width:2;stroke-linecap:round;stroke-linejoin:round;stroke-miterlimit:10"
   x1="418.509"
   y1="102.877"
   x2="421.73199"
   y2="85.470001"
   id="line32" />

			<path
   style="fill:none;stroke:#000000;stroke-width:2;stroke-linecap:round;stroke-linejoin:round;stroke-miterlimit:10"
   d="m 395.346,74.518 c -1.211,-4.058 -1.065,-8.508 0.407,-12.479 1.473,-3.971 4.265,-7.439 7.83,-9.726"
   id="path32" />

			<path
   style="fill:none;stroke:#000000;stroke-width:2;stroke-linecap:round;stroke-linejoin:round;stroke-miterlimit:10"
   d="m 407.521,49.854 c 1.959,-0.723 4.049,-1.09 6.137,-1.079"
   id="path33" />

			<g
   id="g36">
				<g
   id="g35">
					<g
   id="g34">
						<path
   style="fill:none;stroke:#000000;stroke-width:2;stroke-linecap:round;stroke-linejoin:round;stroke-miterlimit:10"
   d="m 452.415,69.784 c 0.696,-1.9 1.047,-3.93 1.061,-5.945 -0.014,-2.015 -0.366,-4.037 -1.061,-5.945 l -4.059,1.477 c -0.523,-1.441 -1.298,-2.768 -2.273,-3.922 l 3.32,-2.789 c -2.589,-3.105 -6.31,-5.242 -10.304,-5.937 l -0.746,4.259 c -0.739,-0.136 -1.492,-0.201 -2.266,-0.201 -0.775,0 -1.535,0.065 -2.273,0.201 l -0.746,-4.259 c -1.993,0.351 -3.922,1.054 -5.679,2.065 -1.75,1.011 -3.334,2.316 -4.625,3.872 l 3.32,2.789 c -0.975,1.154 -1.75,2.481 -2.266,3.93 l -4.066,-1.484 c -0.696,1.907 -1.047,3.93 -1.061,5.945 0.014,2.015 0.366,4.044 1.061,5.945 l 4.066,-1.477 c 0.523,1.441 1.291,2.768 2.266,3.922 l -3.32,2.789 c 1.291,1.556 2.876,2.861 4.625,3.872 1.757,1.011 3.686,1.714 5.679,2.065 l 0.746,-4.259 c 0.739,0.136 1.499,0.201 2.273,0.201 0.774,0 1.527,-0.065 2.266,-0.201 l 0.746,4.259 c 3.994,-0.696 7.716,-2.832 10.304,-5.937 l -3.313,-2.782 c 0.968,-1.154 1.742,-2.481 2.266,-3.93 z m -16.328,1.965 c -4.374,0 -7.917,-3.542 -7.917,-7.909 0,-4.367 3.542,-7.909 7.917,-7.909 4.367,0 7.909,3.542 7.909,7.909 0,4.367 -3.542,7.909 -7.909,7.909 z"
   id="path34" />

					</g>

				</g>

			</g>

		</g>
  </g>
</svg>
