<?xml version="1.0" encoding="UTF-8" standalone="no"?>
<!-- Created with Inkscape (http://www.inkscape.org/) -->

<svg
   width="468.31628"
   height="511.9386"
   viewBox="0 0 468.31628 511.9386"
   version="1.1"
   id="svg1"
   inkscape:export-filename="support.svg"
   inkscape:export-xdpi="300"
   inkscape:export-ydpi="300"
   xmlns:inkscape="http://www.inkscape.org/namespaces/inkscape"
   xmlns:sodipodi="http://sodipodi.sourceforge.net/DTD/sodipodi-0.dtd"
   xmlns="http://www.w3.org/2000/svg"
   xmlns:svg="http://www.w3.org/2000/svg">
  <sodipodi:namedview
     id="namedview1"
     pagecolor="#ffffff"
     bordercolor="#666666"
     borderopacity="1.0"
     inkscape:showpageshadow="2"
     inkscape:pageopacity="0.0"
     inkscape:pagecheckerboard="0"
     inkscape:deskcolor="#d1d1d1"
     inkscape:document-units="px"
     showgrid="false" />
  <defs
     id="defs1" />
  <g
     inkscape:label="Layer 1"
     inkscape:groupmode="layer"
     id="layer1"
     transform="translate(-21.841867,-0.03070482)">
    <g
       id="g1">
      <path
         style="fill:#ffc107;fill-opacity:1;stroke:none;stroke-width:5.54286"
         d="m 378.92956,322.22056 c 2.1728,19.57184 18.25264,35.40225 37.86882,37.23139 12.08344,1.14737 23.23013,-2.81023 31.57213,-9.99932 8.29767,-7.15029 18.55196,-11.57349 29.48802,-11.57349 h 12.29961 V 493.65015 H 252.38605 v -56.33764 h 10.7199 c 11.70097,0 22.68138,4.63938 31.69961,12.08344 7.27778,6.04172 16.63413,9.7 26.84962,9.7 24.89299,0 44.7198,-21.52847 41.95391,-46.9314 -2.1728,-19.57184 -18.25264,-35.40225 -37.86882,-37.23139 -12.08344,-1.14737 -23.23013,2.81023 -31.57213,9.99932 -8.29767,7.15029 -18.55196,11.57349 -29.48802,11.57349 H 252.38051 V 255.8836 h 237.76654 v 41.189 h -10.71989 c -11.70098,0 -22.68138,-4.63938 -31.69962,-12.08344 -7.27777,-6.04171 -16.63412,-9.7 -26.84961,-9.7 -24.88745,-0.006 -44.71426,21.52847 -41.94837,46.9314 z"
         id="path52" />
      <path
         style="fill:#ffc45c;stroke-width:5.54286"
         d="m 378.92956,135.68113 c 2.1728,19.57184 18.25264,35.40225 37.86882,37.23139 12.08344,1.14738 23.23013,-2.81023 31.57213,-9.99932 8.29767,-7.15029 18.55196,-11.57349 29.48802,-11.57349 h 12.29961 v 86.46308 H 252.38605 v -86.46308 h -12.2996 c -10.93607,0 -21.19036,4.4232 -29.48802,11.57349 -8.34201,7.18909 -19.4887,11.1467 -31.57214,9.99932 -19.61618,-1.82914 -35.70156,-17.65955 -37.86882,-37.23139 -2.76589,-25.40293 17.06093,-46.9314 41.95391,-46.9314 10.20995,0 19.57184,3.658288 26.84962,9.700006 9.01823,7.444064 19.99864,12.083434 31.69962,12.083434 h 10.71989 V 0.03070482 H 490.14705 V 110.53317 h -10.71989 c -11.70098,0 -22.68138,-4.63937 -31.69962,-12.083434 -7.27777,-6.041718 -16.63412,-9.700006 -26.84961,-9.700006 -24.88745,0 -44.71426,21.52847 -41.94837,46.9314 z"
         id="path53" />
      <path
         style="fill:none;stroke:#000000;stroke-width:11.0857;stroke-linecap:round;stroke-linejoin:round;stroke-miterlimit:10"
         d="m 334.42039,471.8667 c -10.20995,0 -19.57184,-3.65828 -26.84962,-9.7 -9.01823,-7.44406 -19.99864,-12.08344 -31.69962,-12.08344 H 265.15126 V 506.4209 H 154.64879 v -10.71989 c 0,-11.70098 4.63938,-22.68139 12.08344,-31.69962 6.04172,-7.27778 9.70001,-16.63413 9.70001,-26.84962 0,-24.89299 -21.52847,-44.7198 -46.9314,-41.95391 -19.57184,2.1728 -35.402254,18.25264 -37.231398,37.86882 -1.147372,12.08344 2.81023,23.23013 9.999318,31.57213 7.15029,8.29767 11.57349,18.55196 11.57349,29.48802 v 12.29961 H 27.384717 V 268.64881 H 113.8478 V 256.3492 c 0,-10.93606 -4.4232,-21.19035 -11.57349,-29.48801 -7.189095,-8.34201 -11.146697,-19.4887 -9.999325,-31.57214 1.829144,-19.61618 17.659555,-35.70156 37.231395,-37.86882 25.40293,-2.76589 46.9314,17.06092 46.9314,41.95391 0,10.20995 -3.65829,19.57184 -9.70001,26.84962 -7.44406,9.01823 -12.08343,19.99864 -12.08343,31.69962 v 10.71989 H 265.1568 v 140.62791 h 12.29961 c 10.93606,0 21.19036,-4.4232 29.48802,-11.57349 8.342,-7.18909 19.4887,-11.14669 31.57213,-9.99932 19.61619,1.82914 35.70157,17.65955 37.86883,37.23139 2.7548,25.40293 -17.07201,46.93694 -41.965,46.93694 z"
         id="path54" />
    </g>
  </g>
</svg>
