<?xml version="1.0" encoding="UTF-8" standalone="no"?>
<!-- Created with Inkscape (http://www.inkscape.org/) -->

<svg
   width="512"
   height="512"
   viewBox="0 0 512 512"
   version="1.1"
   id="svg1"
   xmlns:inkscape="http://www.inkscape.org/namespaces/inkscape"
   xmlns:sodipodi="http://sodipodi.sourceforge.net/DTD/sodipodi-0.dtd"
   xmlns="http://www.w3.org/2000/svg"
   xmlns:svg="http://www.w3.org/2000/svg">
  <sodipodi:namedview
     id="namedview1"
     pagecolor="#ffffff"
     bordercolor="#666666"
     borderopacity="1.0"
     inkscape:showpageshadow="2"
     inkscape:pageopacity="0.0"
     inkscape:pagecheckerboard="0"
     inkscape:deskcolor="#d1d1d1"
     inkscape:document-units="px"
     showgrid="false" />
  <defs
     id="defs1" />
  <g
     inkscape:label="Layer 1"
     inkscape:groupmode="layer"
     id="layer1">
    <path
       style="fill:#ffc45c;fill-opacity:1;stroke-width:5.41604"
       d="m 202.65742,328.02522 c 0,65.56117 69.25491,118.76294 154.67129,118.76294 2.77843,0 5.55686,-0.0758 8.30279,-0.14623 l -8.30279,56.71137 84.24652,-75.72709 0.0379,-0.0379 C 483.99365,406.41701 512,369.70708 512,328.01981 512,262.42073 442.74508,209.25687 357.3287,209.25687 c -85.41638,0.005 -154.67129,53.16927 -154.67129,118.76836 z"
       id="path42" />
    <path
       style="fill:none;stroke:#000000;stroke-width:10.8321;stroke-linecap:round;stroke-linejoin:round;stroke-miterlimit:10"
       d="m 333.08651,200.71576 c 15.40322,20.07727 24.23679,43.48539 24.23679,68.47501 0,74.5843 -78.78173,135.10855 -175.95092,135.10855 -3.16297,0 -6.32052,-0.0812 -9.44016,-0.16789 l 9.44016,64.51588 -95.836847,-86.14755 -0.04333,-0.0433 C 37.284025,358.3713 5.4160402,316.60821 5.4160402,269.19077 c 0,-69.959 69.2440828,-127.48819 157.9642498,-134.40989"
       id="path43" />
    <path
       style="fill:#ffc45c;fill-opacity:1;stroke-width:5.41604"
       d="m 380.61769,129.09404 c 0,50.00089 -40.5174,90.51287 -90.51288,90.51287 -49.95756,0 -90.47496,-40.5174 -90.47496,-90.51287 0,-49.957564 40.5174,-90.474966 90.47496,-90.474966 v 90.474966 z"
       id="path44" />
    <path
       style="fill:none;stroke:#000000;stroke-width:10.8321;stroke-linecap:round;stroke-linejoin:round;stroke-miterlimit:10"
       d="m 368.13913,116.61548 c 0,50.00089 -40.5174,90.51287 -90.51287,90.51287 -49.95757,0 -90.47497,-40.5174 -90.47497,-90.51287 0,-49.957562 40.5174,-90.474964 90.47497,-90.474964 v 90.474964 z"
       id="path45" />
    <path
       style="fill:none;stroke:#000000;stroke-width:10.8321;stroke-linecap:round;stroke-linejoin:round;stroke-miterlimit:10"
       d="M 382.50247,104.53771 H 291.9896 V 14.062745 c 49.99547,0 90.51287,40.517402 90.51287,90.474965 z"
       id="path46" />
    <line
       style="fill:none;stroke:#000000;stroke-width:10.8321;stroke-linecap:round;stroke-linejoin:round;stroke-miterlimit:10"
       x1="48.679337"
       y1="234.28979"
       x2="325.62857"
       y2="234.28979"
       id="line46" />
    <line
       style="fill:none;stroke:#000000;stroke-width:10.8321;stroke-linecap:round;stroke-linejoin:round;stroke-miterlimit:10"
       x1="48.679337"
       y1="278.23553"
       x2="279.94971"
       y2="278.23553"
       id="line47" />
    <line
       style="fill:none;stroke:#000000;stroke-width:10.8321;stroke-linecap:round;stroke-linejoin:round;stroke-miterlimit:10"
       x1="48.679337"
       y1="322.17587"
       x2="187.15672"
       y2="322.17587"
       id="line48" />
  </g>
</svg>
